<svg width="28" height="28" viewBox="0 0 28 28" fill="none" xmlns="http://www.w3.org/2000/svg">
<path d="M15.5991 1.73787V4.33588L16.3991 4.54288C17.3041 4.77688 18.1671 5.13988 18.9651 5.62388L19.6801 6.05787L21.5401 4.19788L23.8021 6.45988L21.9141 8.34787L22.3211 9.05587C22.7721 9.84087 23.1091 10.6909 23.3231 11.5829L23.5191 12.3999H26.2631V15.5989H23.4571L23.2411 16.3809C23.0081 17.2249 22.6581 18.0349 22.2011 18.7869L21.7671 19.5029L23.8031 21.5379L21.5411 23.7999L19.4771 21.7359L18.7701 22.1429C18.0361 22.5649 17.2391 22.8879 16.4021 23.1039L15.6021 23.3099V26.2609H12.4031V23.3099L11.6031 23.1039C10.7661 22.8879 9.9691 22.5649 9.2351 22.1429L8.5271 21.7359L6.4631 23.7999L4.2011 21.5379L6.2371 19.5029L5.8031 18.7869C5.3461 18.0339 4.9961 17.2249 4.7631 16.3809L4.5471 15.5989H1.7411V12.3999H4.4851L4.6811 11.5829C4.8941 10.6919 5.2321 9.84087 5.6831 9.05587L6.0901 8.34787L4.2021 6.45988L6.4641 4.19788L8.3241 6.05787L9.03909 5.62388C9.83709 5.13988 10.7001 4.77588 11.6051 4.54288L12.4051 4.33588V1.73787H15.6041H15.5991ZM14.0001 18.7989C16.6461 18.7989 18.7981 16.6459 18.7981 13.9999C18.7981 11.3539 16.6461 9.20088 14.0001 9.20088C11.3541 9.20088 9.2021 11.3539 9.2021 13.9999C9.2021 16.6459 11.3541 18.7989 14.0001 18.7989ZM16.6661 0.671875H11.3351V3.51088C10.3171 3.77388 9.3601 4.18087 8.4831 4.71287L6.4611 2.69088L2.6921 6.46088L4.7571 8.52588C4.2591 9.39288 3.8821 10.3359 3.6431 11.3349H0.673096V16.6659H3.7331C3.9961 17.6189 4.3881 18.5159 4.8891 19.3419L2.6911 21.5399L6.4601 25.3099L8.7011 23.0689C9.5171 23.5379 10.4011 23.8969 11.3341 24.1379V27.3289H16.6651V24.1379C17.5981 23.8969 18.4821 23.5379 19.2981 23.0689L21.5391 25.3099L25.3081 21.5399L23.1101 19.3419C23.6111 18.5159 24.0031 17.6189 24.2661 16.6659H27.3261V11.3349H24.3561C24.1171 10.3359 23.7401 9.39388 23.2421 8.52588L25.3071 6.46088L21.5381 2.69088L19.5161 4.71287C18.6391 4.18087 17.6821 3.77388 16.6641 3.51088V0.671875H16.6661ZM14.0001 17.7329C11.9381 17.7329 10.2681 16.0619 10.2681 13.9999C10.2681 11.9379 11.9381 10.2679 14.0001 10.2679C16.0621 10.2679 17.7321 11.9389 17.7321 13.9999C17.7321 16.0619 16.0621 17.7329 14.0001 17.7329Z" fill="white"/>
</svg>
