<svg width="241" height="37" viewBox="0 0 241 37" fill="none" xmlns="http://www.w3.org/2000/svg">
<path d="M13.4 36.912C10.872 36.912 8.648 36.416 6.728 35.424C4.808 34.432 3.32 32.976 2.264 31.056C1.208 29.136 0.68 26.784 0.68 24V22.464H7.448V24.576C7.448 26.432 7.992 27.904 9.08 28.992C10.168 30.048 11.592 30.576 13.352 30.576C15.144 30.576 16.568 30.048 17.624 28.992C18.712 27.904 19.256 26.432 19.256 24.576V6H26.072V24C26.072 26.784 25.544 29.136 24.488 31.056C23.432 32.976 21.96 34.432 20.072 35.424C18.184 36.416 15.96 36.912 13.4 36.912ZM4.952 6.96V0.959999H26.072V6.96H4.952ZM45.1569 36V0.959999H51.8289V36H45.1569ZM50.8689 36V30.24H66.7569V36H50.8689ZM50.8689 21.072V15.312H65.5089V21.072H50.8689ZM50.8689 6.72V0.959999H66.3729V6.72H50.8689ZM84.7906 36V0.959999H91.6066V36H84.7906ZM90.6466 36V30H105.767V36H90.6466ZM122.458 36V0.959999H129.274V36H122.458ZM155.97 36V6H162.786V36H155.97ZM145.842 6.96V0.959999H172.914V6.96H145.842ZM182.986 36L194.938 0.959999H206.074L218.362 36H211.354L200.938 5.616L203.386 6.672H197.386L199.882 5.616L189.802 36H182.986ZM191.338 26.688L193.498 20.928H207.706L209.818 26.688H191.338ZM233.023 36V28.32H240.511V36H233.023Z" fill="white"/>
</svg>
